<?xml version="1.0" encoding="UTF-8"?>
<svg width="12px" height="12px" viewBox="0 0 12 12" version="1.1" xmlns="http://www.w3.org/2000/svg" xmlns:xlink="http://www.w3.org/1999/xlink">
    <!-- Generator: Sketch 47 (45396) - http://www.bohemiancoding.com/sketch -->
    <title>Fill 1</title>
    <desc>Created with Sketch.</desc>
    <defs></defs>
    <g id="直接リクエスト" stroke="none" stroke-width="1" fill="none" fill-rule="evenodd">
        <g id="vis-request-薬剤を選択-02" transform="translate(-52.000000, -280.000000)" fill="#D11D29">
            <g id="Group" transform="translate(32.000000, 161.000000)">
                <g id="window">
                    <g id="Group-2">
                        <g id="Group-3-Copy-2" transform="translate(0.000000, 100.000000)">
                            <path d="M27.3221287,25 L31.8090547,20.5128789 C31.9325017,20.3893587 32.0006037,20.2245675 32.0007744,20.0488487 C32.0007744,19.8730324 31.9326968,19.7080461 31.8090547,19.584721 L31.4158583,19.1916222 C31.2922649,19.0678093 31.1274737,19 30.9515599,19 C30.7759387,19 30.6111475,19.0678093 30.4875053,19.1916222 L26.0005793,23.6784506 L21.5134582,19.1916222 C21.3900355,19.0678093 21.2251711,19 21.0493548,19 C20.8737093,19 20.7088449,19.0678093 20.5854222,19.1916222 L20.1920308,19.584721 C19.9359897,19.8407376 19.9359897,20.2571549 20.1920308,20.5128789 L24.6790543,25 L20.1920308,29.486926 C20.0685106,29.6106413 20.0005061,29.7754325 20.0005061,29.9511513 C20.0005061,30.12687 20.0685106,30.2916612 20.1920308,30.415279 L20.5853247,30.8083778 C20.7087473,30.9320931 20.8737093,31 21.0492573,31 C21.2250736,31 21.389938,30.9320931 21.5133606,30.8083778 L26.0004817,26.3214518 L30.4874321,30.8083778 C30.6110499,30.9320931 30.7758411,31 30.9514623,31 L30.9516574,31 C31.1273762,31 31.2921674,30.9320931 31.4157608,30.8083778 L31.8089571,30.415279 C31.9324041,30.2917588 32.0005061,30.12687 32.0005061,29.9511513 C32.0005061,29.7754325 31.9324041,29.6106413 31.8089571,29.4870235 L27.3221287,25 Z" id="Fill-1"></path>
                        </g>
                    </g>
                </g>
            </g>
        </g>
    </g>
</svg>